# xmcd CD database file
#
# Track frame offsets:
#	150
#	33110
#	61033
#	81375
#	101938
#	141058
#	163763
#	181400
#
# Disc length: 2711 seconds
#
# Revision: 2
# Processed by: cddbd v1.4PL0 Copyright (c) Steve Scherf et al.
# Submitted via: CDex 1.51
#
DISCID=650a9508
DTITLE=Shirley Caesar - Live...In Chicago
DYEAR=1988
DGENRE=Gospel
TTITLE0=Never
TTITLE1=His Blood
TTITLE2=Feel The Spirit
TTITLE3=Things Are Going To Get Better
TTITLE4=Hold My Mule
TTITLE5=Born Again
TTITLE6=Yes Lord, Yes
TTITLE7=Peace In The Midst Of The Storm
EXTD=YEAR: 1988
EXTT0=
EXTT1=
EXTT2=
EXTT3=
EXTT4=
EXTT5=
EXTT6=
EXTT7=
PLAYORDER=
